<mxfile host="app.diagrams.net" modified="2023-06-14T20:24:11.781Z" agent="Mozilla/5.0 (Windows NT 10.0; Win64; x64) AppleWebKit/537.36 (KHTML, like Gecko) Chrome/114.0.0.0 Safari/537.36" version="21.3.8" etag="bZ1AjxPuri5L9JGwfTJE" type="github">
  <diagram name="PÃ¡gina-1" id="Phq4LAJG02BxFTJI0zZ8">
    <mxGraphModel>
      <root>
        <mxCell id="0" />
        <mxCell id="1" parent="0" />
      </root>
    </mxGraphModel>
  </diagram>
</mxfile>
